<?xml version="1.0" encoding="UTF-8"?>
<svg width="25px" height="20px" viewBox="0 0 25 20" version="1.1" xmlns="http://www.w3.org/2000/svg" xmlns:xlink="http://www.w3.org/1999/xlink">
    <title>icons8-multiple-choice</title>
    <defs>
        <linearGradient x1="21.1130557%" y1="45.7164645%" x2="76.3427424%" y2="53.9088715%" id="linearGradient-1">
            <stop stop-color="#9B59B6" offset="0%"></stop>
            <stop stop-color="#195BBC" offset="100%"></stop>
        </linearGradient>
        <linearGradient x1="21.1130557%" y1="45.7164718%" x2="76.3427424%" y2="53.9088789%" id="linearGradient-2">
            <stop stop-color="#9B59B6" offset="0%"></stop>
            <stop stop-color="#195BBC" offset="100%"></stop>
        </linearGradient>
        <linearGradient x1="21.1130557%" y1="45.7164797%" x2="76.3427424%" y2="53.9088863%" id="linearGradient-3">
            <stop stop-color="#9B59B6" offset="0%"></stop>
            <stop stop-color="#195BBC" offset="100%"></stop>
        </linearGradient>
    </defs>
    <g id="Page-1" stroke="none" stroke-width="1" fill="none" fill-rule="evenodd">
        <g id="icons8-multiple-choice" fill-rule="nonzero">
            <path d="M24.311967,3.74201023 L9.51704545,3.74201023 C9.19300455,3.74201023 8.92666932,3.475675 8.92666932,3.14719432 L8.92666932,1.96644205 C8.92666932,1.63796136 9.19300455,1.37162614 9.51704545,1.37162614 L24.311967,1.37162614 C24.6404477,1.37162614 24.906783,1.63796136 24.906783,1.96644205 L24.906783,3.14719432 C24.906783,3.475675 24.6404477,3.74201023 24.311967,3.74201023 Z" id="Path" fill="url(#linearGradient-1)"></path>
            <path d="M4.78071705,4.9227625 L1.22958068,4.9227625 C0.905539773,4.9227625 0.639204545,4.65642727 0.639204545,4.33238636 L0.639204545,0.78125 C0.639204545,0.457209091 0.905539773,0.190873864 1.22958068,0.190873864 L4.78071705,0.190873864 C5.10919773,0.190873864 5.37553295,0.457209091 5.37553295,0.78125 L5.37553295,4.33238636 C5.37553295,4.65642727 5.10919773,4.9227625 4.78071705,4.9227625 Z" id="Path" fill="#33C481"></path>
            <polygon id="Path" fill="#F1C40F" points="1.82439659 1.37162614 4.19034091 1.37162614 4.19034091 3.74201023 1.82439659 3.74201023"></polygon>
            <path d="M24.311967,10.844283 L9.51704545,10.844283 C9.19300455,10.844283 8.92666932,10.5779477 8.92666932,10.249467 L8.92666932,9.06871477 C8.92666932,8.74023409 9.19300455,8.47389886 9.51704545,8.47389886 L24.311967,8.47389886 C24.6404477,8.47389886 24.906783,8.74023409 24.906783,9.06871477 L24.906783,10.249467 C24.906783,10.5779477 24.6404477,10.844283 24.311967,10.844283 Z" id="Path" fill="url(#linearGradient-2)"></path>
            <path d="M4.78071705,12.0250352 L1.22958068,12.0250352 C0.905539773,12.0250352 0.639204545,11.7587 0.639204545,11.4346591 L0.639204545,7.88352273 C0.639204545,7.55948182 0.905539773,7.29314659 1.22958068,7.29314659 L4.78071705,7.29314659 C5.10919773,7.29314659 5.37553295,7.55948182 5.37553295,7.88352273 L5.37553295,11.4346591 C5.37553295,11.7587 5.10919773,12.0250352 4.78071705,12.0250352 Z" id="Path" fill="#33C481"></path>
            <path d="M24.311967,17.9465557 L9.51704545,17.9465557 C9.19300455,17.9465557 8.92666932,17.6802205 8.92666932,17.3517398 L8.92666932,16.1709875 C8.92666932,15.8425068 9.19300455,15.5761716 9.51704545,15.5761716 L24.311967,15.5761716 C24.6404477,15.5761716 24.906783,15.8425068 24.906783,16.1709875 L24.906783,17.3517398 C24.906783,17.6802205 24.6404477,17.9465557 24.311967,17.9465557 Z" id="Path" fill="url(#linearGradient-3)"></path>
            <path d="M4.78071705,19.127308 L1.22958068,19.127308 C0.905539773,19.127308 0.639204545,18.8609727 0.639204545,18.5369318 L0.639204545,14.9857955 C0.639204545,14.6617545 0.905539773,14.3954193 1.22958068,14.3954193 L4.78071705,14.3954193 C5.10919773,14.3954193 5.37553295,14.6617545 5.37553295,14.9857955 L5.37553295,18.5369318 C5.37553295,18.8609727 5.10919773,19.127308 4.78071705,19.127308 Z" id="Path" fill="#2ECC71"></path>
            <polygon id="Path" fill="#F1C40F" points="1.82439659 8.47389886 4.19034091 8.47389886 4.19034091 10.844283 1.82439659 10.844283"></polygon>
        </g>
    </g>
</svg>