<?xml version="1.0" encoding="UTF-8"?>
<svg width="31px" height="25px" viewBox="0 0 31 25" version="1.1" xmlns="http://www.w3.org/2000/svg" xmlns:xlink="http://www.w3.org/1999/xlink">
    <title>icons8-story-book</title>
    <g id="Page-1" stroke="none" stroke-width="1" fill="none" fill-rule="evenodd">
        <g id="icons8-story-book" fill-rule="nonzero">
            <polygon id="Path" fill="#7E57C2" points="0.740131579 3.59272237 29.5230263 3.59272237 29.5230263 23.4631987 0.740131579 23.4631987"></polygon>
            <path d="M15.1315789,17.9841697 C13.2401316,17.9841697 11.7033303,19.5158303 11.7033303,21.4072776 C11.7033303,23.3038658 13.2401316,24.8355263 15.1315789,24.8355263 C17.0230263,24.8355263 18.5598276,23.3038658 18.5598276,21.4072776 C18.5598276,19.5158303 17.0230263,17.9841697 15.1315789,17.9841697 Z" id="Path" fill="#7E57C2"></path>
            <path d="M15.1315789,19.3513566 C13.9956829,19.3513566 13.0756579,20.2713816 13.0756579,21.4072776 C13.0756579,22.5431737 13.9956829,23.4631987 15.1315789,23.4631987 C16.267475,23.4631987 17.1875,22.5431737 17.1875,21.4072776 C17.1875,20.2713816 16.267475,19.3513566 15.1315789,19.3513566 Z" id="Path" fill="#5E35B1"></path>
            <polygon id="Path" fill="#D7CCC8" points="26.0947776 1.53680132 15.8151724 3.59272237 14.4479855 3.59272237 4.16838026 1.53680132 2.79605263 4.95990921 2.79605263 21.4072776 27.4671053 21.4072776 27.4671053 4.95990921"></polygon>
            <polygon id="Path" fill="#BCAAA4" points="4.16838026 19.3513566 14.4479855 19.3513566 14.4479855 21.4072776 15.8151724 21.4072776 15.8151724 19.3513566 26.0947776 19.3513566 27.4671053 21.4072776 2.79605263 21.4072776"></polygon>
            <path d="M26.0947776,1.53680132 C26.0947776,1.53680132 15.8151724,1.53680132 15.8151724,3.59272237 C15.8151724,5.64864342 15.8151724,21.4072776 15.8151724,21.4072776 C15.8151724,19.3513566 26.0947776,19.3513566 26.0947776,19.3513566 L26.0947776,1.53680132 Z M4.16838026,1.53680132 C4.16838026,1.53680132 14.4479855,1.53680132 14.4479855,3.59272237 C14.4479855,5.64864342 14.4479855,21.4072776 14.4479855,21.4072776 C14.4479855,19.3513566 4.16838026,19.3513566 4.16838026,19.3513566 L4.16838026,1.53680132 Z" id="Shape" fill="#F5DD94"></path>
            <path d="M10.6085526,0.370065789 L10.7473276,0.920025 C10.8141447,1.39802632 11.2253289,1.74239342 11.6365132,1.80921053 L12.1864724,1.94798553 C12.4588816,2.01480263 12.4588816,2.42598684 12.1864724,2.42598684 L11.6365132,2.56476184 C11.1585118,2.63157895 10.8141447,3.04276316 10.7473276,3.45394737 L10.6085526,4.00390658 C10.5417355,4.27631579 10.1305513,4.27631579 10.1305513,4.00390658 L9.99177632,3.45394737 C9.92495921,2.97594605 9.513775,2.63157895 9.10259079,2.56476184 L8.55263158,2.42598684 C8.28022237,2.35916974 8.28022237,1.94798553 8.55263158,1.94798553 L9.10259079,1.80921053 C9.58059211,1.74239342 9.92495921,1.33120921 9.99177632,0.920025 L10.1305513,0.370065789 C10.1305513,0.0976565789 10.5417355,0.0976565789 10.6085526,0.370065789 Z" id="Path" fill="#E74C3C"></path>
            <path d="M22.1217105,8.52693289 L22.1885276,8.93811711 C22.2604855,9.21052632 22.4660776,9.48293553 22.8053039,9.55489342 L23.2164882,9.62171053 C23.4220803,9.68852763 23.4220803,9.89411974 23.2164882,9.96607763 L22.8053039,10.0328947 C22.5328947,10.0997118 22.2604855,10.3053039 22.1885276,10.6496711 L22.1217105,11.0608553 C22.0548934,11.2664474 21.8493013,11.2664474 21.7773434,11.0608553 L21.7105263,10.6496711 C21.6437092,10.3772618 21.4381171,10.0997118 21.09375,10.0328947 L20.6825658,9.96607763 C20.4769737,9.89411974 20.4769737,9.68852763 20.6825658,9.62171053 L21.09375,9.55489342 C21.3661592,9.48293553 21.6437092,9.27734342 21.7105263,8.93811711 L21.7773434,8.52693289 C21.8493013,8.32134079 22.1217105,8.32134079 22.1217105,8.52693289 Z" id="Path" fill="#E74C3C"></path>
            <path d="M11.8421053,13.3223684 L11.9089224,13.7335526 C11.9808803,14.0059618 12.1864724,14.2835118 12.5256987,14.3503289 L12.9368829,14.4171461 C13.142475,14.4891039 13.142475,14.6946961 12.9368829,14.7615132 L12.5256987,14.8283303 C12.2532895,14.9002882 11.9808803,15.1058803 11.9089224,15.4451066 L11.8421053,15.8562908 C11.7752882,16.0618829 11.5696961,16.0618829 11.4977382,15.8562908 L11.4309211,15.4451066 C11.3641039,15.1726974 11.1585118,14.9002882 10.8141447,14.8283303 L10.4029605,14.7615132 C10.1973684,14.6946961 10.1973684,14.4891039 10.4029605,14.4171461 L10.8141447,14.3503289 C11.0865539,14.2835118 11.3641039,14.0779197 11.4309211,13.7335526 L11.4977382,13.3223684 C11.5696961,13.1167763 11.8421053,13.1167763 11.8421053,13.3223684 Z" id="Path" fill="#E74C3C"></path>
        </g>
    </g>
</svg>