<?xml version="1.0" encoding="UTF-8"?>
<svg width="23px" height="25px" viewBox="0 0 23 25" version="1.1" xmlns="http://www.w3.org/2000/svg" xmlns:xlink="http://www.w3.org/1999/xlink">
    <title>icons8-super-hero-male</title>
    <g id="Page-1" stroke="none" stroke-width="1" fill="none" fill-rule="evenodd">
        <g id="icons8-super-hero-male" fill-rule="nonzero">
            <path d="M7.10227273,8.19128788 L7.10227273,5.91856061 C7.10227273,5.91856061 9.46969697,5.91856061 12.4289773,7.69412879 C14.2589962,8.79202178 15.9801136,10.061553 18.3475379,10.061553 C20.7149621,10.061553 22.4905303,8.87784091 22.4905303,8.87784091 C22.4905303,8.87784091 22.4905303,13.6126894 19.53125,17.1638258 C17.7107008,19.3483665 15.3225616,20.1231061 13.6126894,20.1231061 C7.17625473,20.1231061 7.10227273,8.19128788 7.10227273,8.19128788 Z" id="Path" fill="#B71C1C"></path>
            <path d="M11.2446733,9.07552083 L10.6534091,11.8371212 L10.6534091,15.3882576 L4.73484848,15.3882576 L4.73484848,11.8371212 L4.22881155,9.30516098 C4.22881155,9.30516098 3.71803977,8.93288352 3.55172822,8.28598485 C3.38541667,7.63908617 3.55172822,6.77556818 3.55172822,6.77556818 C3.55172822,6.77556818 4.43892045,5.91856061 6.51041667,5.91856061 L7.69412879,5.91856061 L11.2452652,5.91856061 L11.2446733,9.07552083 Z" id="Path" fill="#FF3D00"></path>
            <path d="M6.51041667,6.51041667 C6.51041667,6.51041667 6.48555871,7.69412879 7.71839489,7.69412879 C8.95123106,7.69412879 8.87784091,6.51041667 8.87784091,6.51041667 L8.87784091,4.73484848 L6.51041667,4.73484848 L6.51041667,6.51041667 Z" id="Path" fill="#FF9800"></path>
            <path d="M7.69412879,5.91856061 C8.99976326,5.91856061 10.061553,4.85677083 10.061553,3.55113636 L10.061553,2.36742424 L8.87784091,1.18371212 L6.51041667,1.18371212 L5.32670455,2.36742424 C5.32670455,2.36742424 5.32670455,2.96638258 5.32670455,3.55113636 C5.32670455,4.85677083 6.38790246,5.91856061 7.69412879,5.91856061" id="Path" fill="#FFB74D"></path>
            <path d="M7.10227273,0 L6.51041667,0.591856061 C5.69661458,0.739820076 5.32670455,1.47964015 5.32670455,2.36742424 L5.32670455,2.9592803 L5.91856061,3.55113636 L5.91856061,2.36742424 L6.51041667,1.77556818 L9.46969697,2.36742424 L9.46969697,3.55113636 L10.061553,2.9592803 L10.061553,2.36742424 C10.061553,0.887784091 8.95182292,0.0970643939 7.7977036,0 L7.10227273,0 Z" id="Path" fill="#424242"></path>
            <path d="M10.6534091,15.3882576 L11.6648911,23.4807055 C11.7566288,24.2122396 11.1860795,24.8579545 10.4492188,24.8579545 L10.4444839,24.8579545 C9.87393466,24.8579545 9.37914299,24.4643703 9.25071023,23.9080256 L7.69412879,17.1638258 L6.13754735,23.9080256 C6.00970644,24.4643703 5.51432292,24.8579545 4.94377367,24.8579545 L4.93903883,24.8579545 C4.20217803,24.8579545 3.63222064,24.2122396 3.72336648,23.4807055 L4.73484848,15.3882576 L10.6534091,15.3882576 Z" id="Path" fill="#42A5F5"></path>
            <polygon id="Path" fill="#1E88E5" points="10.6534091 14.2045455 10.6534091 15.3882576 7.69412879 17.1638258 4.73484848 15.3882576 4.73484848 14.2045455"></polygon>
            <polygon id="Path" fill="#FFCA28" points="5.91856061 9.765625 7.69412879 11.8371212 9.46969697 9.765625 8.58191288 8.87784091 6.8063447 8.87784091"></polygon>
            <path d="M11.9004498,4.25544508 L10.6534091,5.91856061 L11.2446733,9.07552083 L13.967803,5.44507576 C14.0814394,5.29296875 14.157197,5.11600379 14.1885653,4.92956913 L14.621804,2.33013731 C14.621804,2.33013731 14.3714489,1.77556818 13.4653172,1.66429924 C12.5591856,1.5530303 12.2887074,1.93004261 12.2887074,1.93004261 L11.9004498,4.25544508 Z" id="Path" fill="#42A5F5"></path>
            <path d="M14.7958097,1.13932292 C14.7756866,0.58889678 14.3714489,0.110677083 13.80741,0.0165719697 C13.7263258,0.00236742424 13.6452415,-0.00236742424 13.5665246,-4.20670443e-17 C13.0137311,0.01953125 12.5390625,0.425544508 12.4449574,0.988991477 L12.2881155,1.93004261 L14.6212121,2.33013731 L14.7798295,1.37843277 C14.7934422,1.29794034 14.7987689,1.21803977 14.7958097,1.13932292 Z" id="Path" fill="#FFB74D"></path>
            <path d="M3.01964962,10.3308475 L4.22881155,9.30516098 L3.55113636,6.77556818 L0.479995265,9.38091856 C0.223129735,9.59872159 0.0716145833,9.91536458 0.0627367424,10.2521307 C0.0532670455,10.5883049 0.188210227,10.9132339 0.433238636,11.1446496 L2.47750947,13.0758759 C2.47750947,13.0758759 3.16287879,13.0581203 3.6624053,12.5029593 C4.16193182,11.9477983 4.09386837,11.3458807 4.09386837,11.3458807 L3.01964962,10.3308475 Z" id="Path" fill="#42A5F5"></path>
            <path d="M4.14299242,14.2045455 C4.45667614,14.2045455 4.7709517,14.0802557 5.00355114,13.8334517 C5.45217803,13.3581913 5.43146307,12.6094934 4.9556108,12.1602746 L4.09386837,11.3458807 L2.47750947,13.0752841 L3.33037405,13.881392 C3.55883049,14.0974195 3.85120739,14.2045455 4.14299242,14.2045455 Z" id="Path" fill="#FFB74D"></path>
        </g>
    </g>
</svg>